<?xml version='1.0' encoding='utf-8'?>
<svg xmlns="http://www.w3.org/2000/svg" version="1.1" x="0%" y="0%" width="100%" height="100%" viewBox="0 0 3000.0 3000.0" enable-background="new 0 0 3000.0 3000.0"> <path fill="#000000" stroke="#000000" fill-opacity="1.000" stroke-opacity="0.000" fill-rule="nonzero" stroke-width="30.0" stroke-linejoin="miter" stroke-linecap="square" d="M24.88,28.66L2973.48,28.66L2973.48,2966.42L24.88,2966.42z"/> <path fill="#000000" stroke="#000000" fill-opacity="1.000" stroke-opacity="0.000" fill-rule="nonzero" stroke-width="30.0" stroke-linejoin="miter" stroke-linecap="square" d="M622.16,427.98C845.82,372.44,1072.15,508.74,1127.69,732.40C1183.22,956.05,1046.93,1182.39,823.27,1237.92C599.61,1293.45,373.28,1157.16,317.75,933.50C262.21,709.84,398.51,483.51,622.16,427.98z"/> <path fill="#000000" stroke="#000000" fill-opacity="1.000" stroke-opacity="0.000" fill-rule="nonzero" stroke-width="30.0" stroke-linejoin="miter" stroke-linecap="square" d="M1492.79,211.80C1716.45,156.27,1942.78,292.56,1998.31,516.22C2053.85,739.88,1917.55,966.21,1693.90,1021.74C1470.24,1077.28,1243.91,940.99,1188.37,717.33C1132.84,493.67,1269.13,267.34,1492.79,211.80z"/> <path fill="#FCFCFC" stroke="#000000" fill-opacity="1.000" stroke-opacity="0.000" fill-rule="nonzero" stroke-width="30.0" stroke-linejoin="miter" stroke-linecap="square" d="M670.54,557.64C846.26,514.01,1020.33,606.04,1059.35,763.18C1098.37,920.33,987.56,1083.10,811.85,1126.73C636.14,1170.35,462.06,1078.33,423.04,921.18C384.02,764.03,494.83,601.27,670.54,557.64z"/> <path fill="#FCFCFC" stroke="#000000" fill-opacity="1.000" stroke-opacity="0.000" fill-rule="nonzero" stroke-width="30.0" stroke-linejoin="miter" stroke-linecap="square" d="M1541.21,337.19C1716.92,293.56,1890.99,385.58,1930.01,542.73C1969.03,699.88,1858.22,862.64,1682.51,906.27C1506.80,949.90,1332.73,857.88,1293.71,700.73C1254.68,543.58,1365.50,380.82,1541.21,337.19z"/> <path fill="#000000" stroke="#000000" fill-opacity="1.000" stroke-opacity="0.000" fill-rule="nonzero" stroke-width="30.0" stroke-linejoin="miter" stroke-linecap="square" d="M777.07,752.56C853.79,733.51,932.88,786.07,953.71,869.96C974.54,953.85,929.23,1037.30,852.50,1056.36C775.78,1075.41,696.69,1022.84,675.86,938.95C655.03,855.06,700.34,771.61,777.07,752.56z"/> <path fill="#000000" stroke="#000000" fill-opacity="1.000" stroke-opacity="0.000" fill-rule="nonzero" stroke-width="30.0" stroke-linejoin="miter" stroke-linecap="square" d="M1637.06,542.98C1713.79,523.92,1792.87,576.49,1813.70,660.38C1834.53,744.27,1789.22,827.72,1712.49,846.77C1635.77,865.82,1556.69,813.26,1535.86,729.37C1515.02,645.48,1560.34,562.03,1637.06,542.98z"/> <path fill="#FCFCFC" stroke="#000000" fill-opacity="1.000" stroke-opacity="0.000" fill-rule="nonzero" stroke-width="30.0" stroke-linejoin="miter" stroke-linecap="square" d="M791.11,778.03C826.87,769.15,861.86,786.09,869.25,815.87C876.64,845.64,853.65,876.98,817.88,885.86C782.12,894.74,747.14,877.80,739.74,848.02C732.35,818.25,755.35,786.91,791.11,778.03z"/> <path fill="#FCFCFC" stroke="#000000" fill-opacity="1.000" stroke-opacity="0.000" fill-rule="nonzero" stroke-width="30.0" stroke-linejoin="miter" stroke-linecap="square" d="M1693.21,571.75C1728.98,562.87,1763.96,579.81,1771.36,609.59C1778.75,639.36,1755.75,670.70,1719.99,679.58C1684.23,688.46,1649.24,671.52,1641.85,641.74C1634.45,611.97,1657.45,580.63,1693.21,571.75z"/> </svg>